<mxfile host="app.diagrams.net" modified="2022-03-08T15:37:25.183Z" agent="5.0 (Windows NT 10.0; Win64; x64) AppleWebKit/537.36 (KHTML, like Gecko) Chrome/99.0.4844.51 Safari/537.36 Edg/99.0.1150.30" etag="DEUz4RH2mkWZAF04leVG" version="17.0.0" type="github">
  <diagram id="C5RBs43oDa-KdzZeNtuy" name="Page-1">
    <mxGraphModel dx="2048" dy="681" grid="1" gridSize="10" guides="1" tooltips="1" connect="1" arrows="1" fold="1" page="1" pageScale="1" pageWidth="827" pageHeight="1169" math="0" shadow="0">
      <root>
        <mxCell id="WIyWlLk6GJQsqaUBKTNV-0" />
        <mxCell id="WIyWlLk6GJQsqaUBKTNV-1" parent="WIyWlLk6GJQsqaUBKTNV-0" />
        <mxCell id="bKfD0tDvCeiwySM8Z8iJ-4" value="&lt;b&gt;START&lt;/b&gt;" style="rounded=1;whiteSpace=wrap;html=1;" vertex="1" parent="WIyWlLk6GJQsqaUBKTNV-1">
          <mxGeometry x="280" y="50" width="170" height="70" as="geometry" />
        </mxCell>
        <mxCell id="bKfD0tDvCeiwySM8Z8iJ-5" value="" style="endArrow=classic;html=1;rounded=0;" edge="1" parent="WIyWlLk6GJQsqaUBKTNV-1">
          <mxGeometry width="50" height="50" relative="1" as="geometry">
            <mxPoint x="370" y="120" as="sourcePoint" />
            <mxPoint x="370" y="200" as="targetPoint" />
          </mxGeometry>
        </mxCell>
        <mxCell id="bKfD0tDvCeiwySM8Z8iJ-6" value="input int&lt;br&gt;a, b;" style="shape=parallelogram;perimeter=parallelogramPerimeter;whiteSpace=wrap;html=1;fixedSize=1;" vertex="1" parent="WIyWlLk6GJQsqaUBKTNV-1">
          <mxGeometry x="292.5" y="200" width="145" height="70" as="geometry" />
        </mxCell>
        <mxCell id="bKfD0tDvCeiwySM8Z8iJ-7" value="" style="endArrow=classic;html=1;rounded=0;" edge="1" parent="WIyWlLk6GJQsqaUBKTNV-1">
          <mxGeometry width="50" height="50" relative="1" as="geometry">
            <mxPoint x="370" y="260" as="sourcePoint" />
            <mxPoint x="370" y="350" as="targetPoint" />
          </mxGeometry>
        </mxCell>
        <mxCell id="bKfD0tDvCeiwySM8Z8iJ-8" value="+ Pertambahan&lt;br&gt;- Pengurangan&lt;br&gt;* Perkalian&lt;br&gt;/ Pembagian&lt;br&gt;% Modulus&lt;br&gt;E Keluar" style="shape=parallelogram;perimeter=parallelogramPerimeter;whiteSpace=wrap;html=1;fixedSize=1;" vertex="1" parent="WIyWlLk6GJQsqaUBKTNV-1">
          <mxGeometry x="262.5" y="350" width="205" height="100" as="geometry" />
        </mxCell>
        <mxCell id="bKfD0tDvCeiwySM8Z8iJ-9" value="" style="endArrow=classic;html=1;rounded=0;" edge="1" parent="WIyWlLk6GJQsqaUBKTNV-1">
          <mxGeometry width="50" height="50" relative="1" as="geometry">
            <mxPoint x="370" y="450" as="sourcePoint" />
            <mxPoint x="370" y="530" as="targetPoint" />
          </mxGeometry>
        </mxCell>
        <mxCell id="bKfD0tDvCeiwySM8Z8iJ-10" value="input String pilihan;" style="shape=parallelogram;perimeter=parallelogramPerimeter;whiteSpace=wrap;html=1;fixedSize=1;" vertex="1" parent="WIyWlLk6GJQsqaUBKTNV-1">
          <mxGeometry x="292.5" y="530" width="145" height="60" as="geometry" />
        </mxCell>
        <mxCell id="bKfD0tDvCeiwySM8Z8iJ-11" value="" style="endArrow=classic;html=1;rounded=0;" edge="1" parent="WIyWlLk6GJQsqaUBKTNV-1">
          <mxGeometry width="50" height="50" relative="1" as="geometry">
            <mxPoint x="370" y="590" as="sourcePoint" />
            <mxPoint x="370" y="680" as="targetPoint" />
          </mxGeometry>
        </mxCell>
        <mxCell id="bKfD0tDvCeiwySM8Z8iJ-13" value="if pilihan = &quot;E&quot;" style="rhombus;whiteSpace=wrap;html=1;" vertex="1" parent="WIyWlLk6GJQsqaUBKTNV-1">
          <mxGeometry x="280" y="680" width="177.5" height="80" as="geometry" />
        </mxCell>
        <mxCell id="bKfD0tDvCeiwySM8Z8iJ-14" value="" style="endArrow=classic;html=1;rounded=0;" edge="1" parent="WIyWlLk6GJQsqaUBKTNV-1">
          <mxGeometry width="50" height="50" relative="1" as="geometry">
            <mxPoint x="368.33" y="760" as="sourcePoint" />
            <mxPoint x="368.33" y="830" as="targetPoint" />
          </mxGeometry>
        </mxCell>
        <mxCell id="bKfD0tDvCeiwySM8Z8iJ-16" value="Switch pilihan {}" style="shape=hexagon;perimeter=hexagonPerimeter2;whiteSpace=wrap;html=1;fixedSize=1;" vertex="1" parent="WIyWlLk6GJQsqaUBKTNV-1">
          <mxGeometry x="303.75" y="830" width="130" height="100" as="geometry" />
        </mxCell>
        <mxCell id="bKfD0tDvCeiwySM8Z8iJ-17" value="" style="endArrow=classic;html=1;rounded=0;" edge="1" parent="WIyWlLk6GJQsqaUBKTNV-1">
          <mxGeometry width="50" height="50" relative="1" as="geometry">
            <mxPoint x="368.33000000000004" y="930" as="sourcePoint" />
            <mxPoint x="368.33000000000004" y="970" as="targetPoint" />
          </mxGeometry>
        </mxCell>
        <mxCell id="bKfD0tDvCeiwySM8Z8iJ-18" value="" style="endArrow=none;html=1;rounded=0;" edge="1" parent="WIyWlLk6GJQsqaUBKTNV-1">
          <mxGeometry width="50" height="50" relative="1" as="geometry">
            <mxPoint x="90" y="970" as="sourcePoint" />
            <mxPoint x="690" y="970" as="targetPoint" />
          </mxGeometry>
        </mxCell>
        <mxCell id="bKfD0tDvCeiwySM8Z8iJ-19" value="" style="endArrow=classic;html=1;rounded=0;" edge="1" parent="WIyWlLk6GJQsqaUBKTNV-1" target="bKfD0tDvCeiwySM8Z8iJ-20">
          <mxGeometry width="50" height="50" relative="1" as="geometry">
            <mxPoint x="90" y="970" as="sourcePoint" />
            <mxPoint x="90" y="1030" as="targetPoint" />
          </mxGeometry>
        </mxCell>
        <mxCell id="bKfD0tDvCeiwySM8Z8iJ-20" value="int c = a + b;" style="rounded=0;whiteSpace=wrap;html=1;" vertex="1" parent="WIyWlLk6GJQsqaUBKTNV-1">
          <mxGeometry x="30" y="1020" width="120" height="30" as="geometry" />
        </mxCell>
        <mxCell id="bKfD0tDvCeiwySM8Z8iJ-22" value="" style="endArrow=classic;html=1;rounded=0;" edge="1" parent="WIyWlLk6GJQsqaUBKTNV-1">
          <mxGeometry width="50" height="50" relative="1" as="geometry">
            <mxPoint x="230" y="970" as="sourcePoint" />
            <mxPoint x="230" y="1020" as="targetPoint" />
          </mxGeometry>
        </mxCell>
        <mxCell id="bKfD0tDvCeiwySM8Z8iJ-23" value="int d = a - b;" style="rounded=0;whiteSpace=wrap;html=1;" vertex="1" parent="WIyWlLk6GJQsqaUBKTNV-1">
          <mxGeometry x="170" y="1020" width="120" height="30" as="geometry" />
        </mxCell>
        <mxCell id="bKfD0tDvCeiwySM8Z8iJ-25" value="" style="endArrow=classic;html=1;rounded=0;" edge="1" parent="WIyWlLk6GJQsqaUBKTNV-1">
          <mxGeometry width="50" height="50" relative="1" as="geometry">
            <mxPoint x="368.33000000000004" y="970" as="sourcePoint" />
            <mxPoint x="368.33000000000004" y="1020" as="targetPoint" />
          </mxGeometry>
        </mxCell>
        <mxCell id="bKfD0tDvCeiwySM8Z8iJ-26" value="int e = a * b;" style="rounded=0;whiteSpace=wrap;html=1;" vertex="1" parent="WIyWlLk6GJQsqaUBKTNV-1">
          <mxGeometry x="308.75" y="1020" width="120" height="30" as="geometry" />
        </mxCell>
        <mxCell id="bKfD0tDvCeiwySM8Z8iJ-27" value="" style="endArrow=classic;html=1;rounded=0;" edge="1" parent="WIyWlLk6GJQsqaUBKTNV-1">
          <mxGeometry width="50" height="50" relative="1" as="geometry">
            <mxPoint x="519.9999999999999" y="970" as="sourcePoint" />
            <mxPoint x="519.9999999999999" y="1020" as="targetPoint" />
          </mxGeometry>
        </mxCell>
        <mxCell id="bKfD0tDvCeiwySM8Z8iJ-28" value="int f = a / b;" style="rounded=0;whiteSpace=wrap;html=1;" vertex="1" parent="WIyWlLk6GJQsqaUBKTNV-1">
          <mxGeometry x="457.5" y="1020" width="120" height="30" as="geometry" />
        </mxCell>
        <mxCell id="bKfD0tDvCeiwySM8Z8iJ-29" value="" style="endArrow=classic;html=1;rounded=0;" edge="1" parent="WIyWlLk6GJQsqaUBKTNV-1">
          <mxGeometry width="50" height="50" relative="1" as="geometry">
            <mxPoint x="690" y="970" as="sourcePoint" />
            <mxPoint x="690" y="1020" as="targetPoint" />
          </mxGeometry>
        </mxCell>
        <mxCell id="bKfD0tDvCeiwySM8Z8iJ-30" value="int g = a % b;" style="rounded=0;whiteSpace=wrap;html=1;" vertex="1" parent="WIyWlLk6GJQsqaUBKTNV-1">
          <mxGeometry x="620" y="1020" width="120" height="30" as="geometry" />
        </mxCell>
        <mxCell id="bKfD0tDvCeiwySM8Z8iJ-31" value="" style="endArrow=classic;html=1;rounded=0;" edge="1" parent="WIyWlLk6GJQsqaUBKTNV-1">
          <mxGeometry width="50" height="50" relative="1" as="geometry">
            <mxPoint x="89.57999999999998" y="1050" as="sourcePoint" />
            <mxPoint x="90" y="1110" as="targetPoint" />
          </mxGeometry>
        </mxCell>
        <mxCell id="bKfD0tDvCeiwySM8Z8iJ-32" value="print c;" style="shape=parallelogram;perimeter=parallelogramPerimeter;whiteSpace=wrap;html=1;fixedSize=1;" vertex="1" parent="WIyWlLk6GJQsqaUBKTNV-1">
          <mxGeometry x="30" y="1109" width="120" height="60" as="geometry" />
        </mxCell>
        <mxCell id="bKfD0tDvCeiwySM8Z8iJ-33" value="" style="endArrow=classic;html=1;rounded=0;" edge="1" parent="WIyWlLk6GJQsqaUBKTNV-1">
          <mxGeometry width="50" height="50" relative="1" as="geometry">
            <mxPoint x="229.57999999999993" y="1049" as="sourcePoint" />
            <mxPoint x="230" y="1109" as="targetPoint" />
          </mxGeometry>
        </mxCell>
        <mxCell id="bKfD0tDvCeiwySM8Z8iJ-34" value="print d;" style="shape=parallelogram;perimeter=parallelogramPerimeter;whiteSpace=wrap;html=1;fixedSize=1;" vertex="1" parent="WIyWlLk6GJQsqaUBKTNV-1">
          <mxGeometry x="170" y="1109" width="120" height="60" as="geometry" />
        </mxCell>
        <mxCell id="bKfD0tDvCeiwySM8Z8iJ-35" value="" style="endArrow=classic;html=1;rounded=0;" edge="1" parent="WIyWlLk6GJQsqaUBKTNV-1">
          <mxGeometry width="50" height="50" relative="1" as="geometry">
            <mxPoint x="368.3299999999999" y="1050" as="sourcePoint" />
            <mxPoint x="368.75" y="1110" as="targetPoint" />
          </mxGeometry>
        </mxCell>
        <mxCell id="bKfD0tDvCeiwySM8Z8iJ-36" value="print e;" style="shape=parallelogram;perimeter=parallelogramPerimeter;whiteSpace=wrap;html=1;fixedSize=1;" vertex="1" parent="WIyWlLk6GJQsqaUBKTNV-1">
          <mxGeometry x="308.75" y="1109" width="120" height="60" as="geometry" />
        </mxCell>
        <mxCell id="bKfD0tDvCeiwySM8Z8iJ-39" value="" style="endArrow=classic;html=1;rounded=0;" edge="1" parent="WIyWlLk6GJQsqaUBKTNV-1">
          <mxGeometry width="50" height="50" relative="1" as="geometry">
            <mxPoint x="517.0799999999999" y="1049" as="sourcePoint" />
            <mxPoint x="517.5" y="1109" as="targetPoint" />
          </mxGeometry>
        </mxCell>
        <mxCell id="bKfD0tDvCeiwySM8Z8iJ-40" value="print f;" style="shape=parallelogram;perimeter=parallelogramPerimeter;whiteSpace=wrap;html=1;fixedSize=1;" vertex="1" parent="WIyWlLk6GJQsqaUBKTNV-1">
          <mxGeometry x="457.5" y="1109" width="120" height="60" as="geometry" />
        </mxCell>
        <mxCell id="bKfD0tDvCeiwySM8Z8iJ-41" value="" style="endArrow=classic;html=1;rounded=0;" edge="1" parent="WIyWlLk6GJQsqaUBKTNV-1">
          <mxGeometry width="50" height="50" relative="1" as="geometry">
            <mxPoint x="689.9999999999999" y="1050" as="sourcePoint" />
            <mxPoint x="690.42" y="1110" as="targetPoint" />
          </mxGeometry>
        </mxCell>
        <mxCell id="bKfD0tDvCeiwySM8Z8iJ-42" value="print g;" style="shape=parallelogram;perimeter=parallelogramPerimeter;whiteSpace=wrap;html=1;fixedSize=1;" vertex="1" parent="WIyWlLk6GJQsqaUBKTNV-1">
          <mxGeometry x="630" y="1109" width="120" height="60" as="geometry" />
        </mxCell>
        <mxCell id="bKfD0tDvCeiwySM8Z8iJ-43" value="" style="endArrow=classic;html=1;rounded=0;" edge="1" parent="WIyWlLk6GJQsqaUBKTNV-1">
          <mxGeometry width="50" height="50" relative="1" as="geometry">
            <mxPoint x="89.57999999999998" y="1169" as="sourcePoint" />
            <mxPoint x="89.57999999999998" y="1229" as="targetPoint" />
          </mxGeometry>
        </mxCell>
        <mxCell id="bKfD0tDvCeiwySM8Z8iJ-45" value="" style="endArrow=classic;html=1;rounded=0;" edge="1" parent="WIyWlLk6GJQsqaUBKTNV-1">
          <mxGeometry width="50" height="50" relative="1" as="geometry">
            <mxPoint x="689.5799999999999" y="1169" as="sourcePoint" />
            <mxPoint x="689.5799999999999" y="1229.0000000000002" as="targetPoint" />
          </mxGeometry>
        </mxCell>
        <mxCell id="bKfD0tDvCeiwySM8Z8iJ-46" value="" style="endArrow=classic;html=1;rounded=0;" edge="1" parent="WIyWlLk6GJQsqaUBKTNV-1">
          <mxGeometry width="50" height="50" relative="1" as="geometry">
            <mxPoint x="517.0799999999999" y="1169" as="sourcePoint" />
            <mxPoint x="517.0799999999999" y="1229.0000000000002" as="targetPoint" />
          </mxGeometry>
        </mxCell>
        <mxCell id="bKfD0tDvCeiwySM8Z8iJ-47" value="" style="endArrow=classic;html=1;rounded=0;" edge="1" parent="WIyWlLk6GJQsqaUBKTNV-1">
          <mxGeometry width="50" height="50" relative="1" as="geometry">
            <mxPoint x="364.5799999999999" y="1169" as="sourcePoint" />
            <mxPoint x="364.5799999999999" y="1229.0000000000002" as="targetPoint" />
          </mxGeometry>
        </mxCell>
        <mxCell id="bKfD0tDvCeiwySM8Z8iJ-48" value="" style="endArrow=classic;html=1;rounded=0;" edge="1" parent="WIyWlLk6GJQsqaUBKTNV-1">
          <mxGeometry width="50" height="50" relative="1" as="geometry">
            <mxPoint x="229.57999999999993" y="1169" as="sourcePoint" />
            <mxPoint x="229.57999999999993" y="1229.0000000000002" as="targetPoint" />
          </mxGeometry>
        </mxCell>
        <mxCell id="bKfD0tDvCeiwySM8Z8iJ-49" value="" style="endArrow=none;html=1;rounded=0;" edge="1" parent="WIyWlLk6GJQsqaUBKTNV-1">
          <mxGeometry width="50" height="50" relative="1" as="geometry">
            <mxPoint x="80" y="1230" as="sourcePoint" />
            <mxPoint x="690" y="1230" as="targetPoint" />
          </mxGeometry>
        </mxCell>
        <mxCell id="bKfD0tDvCeiwySM8Z8iJ-50" value="" style="endArrow=classic;html=1;rounded=0;" edge="1" parent="WIyWlLk6GJQsqaUBKTNV-1">
          <mxGeometry width="50" height="50" relative="1" as="geometry">
            <mxPoint x="320" y="1230" as="sourcePoint" />
            <mxPoint x="320" y="1270" as="targetPoint" />
          </mxGeometry>
        </mxCell>
        <mxCell id="bKfD0tDvCeiwySM8Z8iJ-51" value="" style="endArrow=none;html=1;rounded=0;" edge="1" parent="WIyWlLk6GJQsqaUBKTNV-1">
          <mxGeometry width="50" height="50" relative="1" as="geometry">
            <mxPoint x="-78" y="1270" as="sourcePoint" />
            <mxPoint x="320" y="1270" as="targetPoint" />
          </mxGeometry>
        </mxCell>
        <mxCell id="bKfD0tDvCeiwySM8Z8iJ-52" value="" style="endArrow=none;html=1;rounded=0;" edge="1" parent="WIyWlLk6GJQsqaUBKTNV-1">
          <mxGeometry width="50" height="50" relative="1" as="geometry">
            <mxPoint x="-80" y="1270" as="sourcePoint" />
            <mxPoint x="-80" y="320" as="targetPoint" />
          </mxGeometry>
        </mxCell>
        <mxCell id="bKfD0tDvCeiwySM8Z8iJ-54" value="" style="endArrow=none;html=1;rounded=0;" edge="1" parent="WIyWlLk6GJQsqaUBKTNV-1">
          <mxGeometry width="50" height="50" relative="1" as="geometry">
            <mxPoint x="433.75" y="880" as="sourcePoint" />
            <mxPoint x="940" y="880" as="targetPoint" />
          </mxGeometry>
        </mxCell>
        <mxCell id="bKfD0tDvCeiwySM8Z8iJ-55" value="" style="endArrow=none;html=1;rounded=0;" edge="1" parent="WIyWlLk6GJQsqaUBKTNV-1">
          <mxGeometry width="50" height="50" relative="1" as="geometry">
            <mxPoint x="940" y="1280" as="sourcePoint" />
            <mxPoint x="940" y="880" as="targetPoint" />
          </mxGeometry>
        </mxCell>
        <mxCell id="bKfD0tDvCeiwySM8Z8iJ-56" value="" style="endArrow=none;html=1;rounded=0;" edge="1" parent="WIyWlLk6GJQsqaUBKTNV-1">
          <mxGeometry width="50" height="50" relative="1" as="geometry">
            <mxPoint x="390" y="1280" as="sourcePoint" />
            <mxPoint x="940" y="1280" as="targetPoint" />
          </mxGeometry>
        </mxCell>
        <mxCell id="bKfD0tDvCeiwySM8Z8iJ-57" value="" style="endArrow=classic;html=1;rounded=0;" edge="1" parent="WIyWlLk6GJQsqaUBKTNV-1">
          <mxGeometry width="50" height="50" relative="1" as="geometry">
            <mxPoint x="390" y="1280" as="sourcePoint" />
            <mxPoint x="390" y="1410" as="targetPoint" />
          </mxGeometry>
        </mxCell>
        <mxCell id="bKfD0tDvCeiwySM8Z8iJ-58" value="&lt;b&gt;STOP&lt;/b&gt;" style="rounded=1;whiteSpace=wrap;html=1;" vertex="1" parent="WIyWlLk6GJQsqaUBKTNV-1">
          <mxGeometry x="310" y="1410" width="170" height="70" as="geometry" />
        </mxCell>
        <mxCell id="bKfD0tDvCeiwySM8Z8iJ-59" value="" style="endArrow=none;html=1;rounded=0;" edge="1" parent="WIyWlLk6GJQsqaUBKTNV-1">
          <mxGeometry width="50" height="50" relative="1" as="geometry">
            <mxPoint x="-80" y="320" as="sourcePoint" />
            <mxPoint x="370" y="320" as="targetPoint" />
          </mxGeometry>
        </mxCell>
      </root>
    </mxGraphModel>
  </diagram>
</mxfile>
